<svg width="50" height="86" viewBox="0 0 50 86" xmlns="http://www.w3.org/2000/svg" xmlns:xlink="http://www.w3.org/1999/xlink"><defs><filter x="-22%" y="-55.8%" width="143.9%" height="211.5%" filterUnits="objectBoundingBox" id="a"><feOffset dx="-5" in="SourceAlpha" result="shadowOffsetOuter1"/><feGaussianBlur stdDeviation="3" in="shadowOffsetOuter1" result="shadowBlurOuter1"/><feColorMatrix values="0 0 0 0 0 0 0 0 0 0 0 0 0 0 0 0 0 0 0.2 0" in="shadowBlurOuter1" result="shadowMatrixOuter1"/><feMerge><feMergeNode in="shadowMatrixOuter1"/><feMergeNode in="SourceGraphic"/></feMerge></filter><linearGradient x1="50%" y1="0%" x2="50%" y2="100%" id="b"><stop stop-color="#4DABFF" offset="0%"/><stop stop-color="#008FD1" offset="100%"/></linearGradient><path d="M9 22h2v2.5a.5.5 0 0 1-.5.5h-1a.5.5 0 0 1-.5-.5V22z" id="c"/><filter x="-50%" y="-33.3%" width="200%" height="166.7%" filterUnits="objectBoundingBox" id="d"><feGaussianBlur stdDeviation=".5" in="SourceAlpha" result="shadowBlurInner1"/><feOffset dx="1" in="shadowBlurInner1" result="shadowOffsetInner1"/><feComposite in="shadowOffsetInner1" in2="SourceAlpha" operator="arithmetic" k2="-1" k3="1" result="shadowInnerInner1"/><feColorMatrix values="0 0 0 0 0 0 0 0 0 0 0 0 0 0 0 0 0 0 0.2 0" in="shadowInnerInner1"/></filter><path d="M9 1h2v2.5a.5.5 0 0 1-.5.5h-1a.5.5 0 0 1-.5-.5V1z" id="e"/><filter x="-50%" y="-33.3%" width="200%" height="166.7%" filterUnits="objectBoundingBox" id="f"><feGaussianBlur stdDeviation=".5" in="SourceAlpha" result="shadowBlurInner1"/><feOffset dx="1" in="shadowBlurInner1" result="shadowOffsetInner1"/><feComposite in="shadowOffsetInner1" in2="SourceAlpha" operator="arithmetic" k2="-1" k3="1" result="shadowInnerInner1"/><feColorMatrix values="0 0 0 0 0 0 0 0 0 0 0 0 0 0 0 0 0 0 0.2 0" in="shadowInnerInner1"/></filter><path d="M3.361 4.456l3.461-.56a50 50 0 0 1 5.212-.565L18 3v20l-6.217-.345a50 50 0 0 1-5.41-.598l-3.028-.502A4 4 0 0 1 0 17.609V8.405a4 4 0 0 1 3.361-3.949z" id="g"/><filter x="-5.6%" y="-5%" width="111.1%" height="110%" filterUnits="objectBoundingBox" id="h"><feGaussianBlur stdDeviation=".5" in="SourceAlpha" result="shadowBlurInner1"/><feOffset dx="-1" in="shadowBlurInner1" result="shadowOffsetInner1"/><feComposite in="shadowOffsetInner1" in2="SourceAlpha" operator="arithmetic" k2="-1" k3="1" result="shadowInnerInner1"/><feColorMatrix values="0 0 0 0 0 0 0 0 0 0 0 0 0 0 0 0 0 0 0.3 0" in="shadowInnerInner1"/></filter></defs><g filter="url(#a)" transform="rotate(90 14 24)" fill="none" fill-rule="evenodd"><path fill="#333" fill-rule="nonzero" d="M5 21h6v2H5zM5 3h6v2H5z"/><g fill-rule="nonzero"><use fill="url(#b)" xlink:href="#c"/><use fill="#000" filter="url(#d)" xlink:href="#c"/></g><g fill-rule="nonzero" transform="matrix(1 0 0 -1 0 5)"><use fill="url(#b)" xlink:href="#e"/><use fill="#000" filter="url(#f)" xlink:href="#e"/></g><g fill-rule="nonzero"><use fill="url(#b)" xlink:href="#g"/><use fill="#000" filter="url(#h)" xlink:href="#g"/></g><path d="M9.338 19.503l5.643.492c.576.05 1.069-.294 1.015-.709l-.322-2.513a29.58 29.58 0 0 1 0-7.546l.322-2.514c.054-.414-.44-.758-1.015-.708l-5.643.492c-.422.037-.752.28-.796.582l-.25 1.77c-.39 2.76-.39 5.542 0 8.302l.25 1.769c.044.304.374.545.796.583" fill="#333"/><path d="M9.598 5.944l5.73-.533A.74.74 0 0 0 16 4.675a.596.596 0 0 0-.67-.592l-5.45.676a.87.87 0 0 0-.738.658.428.428 0 0 0 .456.527zM9.598 20.056l5.73.533a.74.74 0 0 1 .672.736.596.596 0 0 1-.67.592l-5.45-.676a.87.87 0 0 1-.738-.658.428.428 0 0 1 .456-.527z" fill="#333" fill-rule="nonzero"/><path d="M19.693 25.5h44.614c.668 0 1.193-.478 1.193-1.042V1.542C65.5.978 64.975.5 64.307.5H19.693C19.024.5 18.5.977 18.5 1.542v22.916c0 .565.524 1.042 1.193 1.042z" stroke="#EFEFEF" fill="#FFF"/><g fill-rule="nonzero" stroke="#EFEFEF" stroke-linecap="square"><path d="M42.5.72V25.5M50.5.72V25.5M58.5.72V25.5M34.5.72V25.5M26.5.72V25.5"/></g></g></svg>