<?xml version="1.0" encoding="UTF-8"?>
<svg width="79px" height="39px" viewBox="0 0 79 39" version="1.1" xmlns="http://www.w3.org/2000/svg" xmlns:xlink="http://www.w3.org/1999/xlink">
    <!-- Generator: Sketch 52 (66869) - http://www.bohemiancoding.com/sketch -->
    <title>Group 8</title>
    <desc>Created with Sketch.</desc>
    <defs>
        <filter x="-32.6%" y="-83.3%" width="166.7%" height="266.7%" filterUnits="objectBoundingBox" id="filter-1">
            <feOffset dx="0" dy="5" in="SourceAlpha" result="shadowOffsetOuter1"></feOffset>
            <feGaussianBlur stdDeviation="3" in="shadowOffsetOuter1" result="shadowBlurOuter1"></feGaussianBlur>
            <feColorMatrix values="0 0 0 0 0   0 0 0 0 0   0 0 0 0 0  0 0 0 0.2 0" type="matrix" in="shadowBlurOuter1" result="shadowMatrixOuter1"></feColorMatrix>
            <feMerge>
                <feMergeNode in="shadowMatrixOuter1"></feMergeNode>
                <feMergeNode in="SourceGraphic"></feMergeNode>
            </feMerge>
        </filter>
        <linearGradient x1="50%" y1="0%" x2="50%" y2="100%" id="linearGradient-2">
            <stop stop-color="#4DABFF" offset="0%"></stop>
            <stop stop-color="#008FD1" offset="100%"></stop>
        </linearGradient>
        <path d="M3.36115059,3.45620233 L6.82198706,2.89627656 C8.54828624,2.6169801 10.2880493,2.4284417 12.0341037,2.33143868 L18,2 L18,22 L11.7828424,21.6546024 C9.96989837,21.5538832 8.16378654,21.3544839 6.37253373,21.0572906 L3.34529523,20.5550303 C1.41521492,20.2348035 1.10844284e-15,18.5654388 0,16.6089738 L8.8817842e-16,7.40485671 C6.47836157e-16,5.4423132 1.42379909,3.76964477 3.36115059,3.45620233 Z" id="path-3"></path>
        <filter x="-5.6%" y="-5.0%" width="111.1%" height="110.0%" filterUnits="objectBoundingBox" id="filter-4">
            <feGaussianBlur stdDeviation="0.5" in="SourceAlpha" result="shadowBlurInner1"></feGaussianBlur>
            <feOffset dx="-1" dy="0" in="shadowBlurInner1" result="shadowOffsetInner1"></feOffset>
            <feComposite in="shadowOffsetInner1" in2="SourceAlpha" operator="arithmetic" k2="-1" k3="1" result="shadowInnerInner1"></feComposite>
            <feColorMatrix values="0 0 0 0 0   0 0 0 0 0   0 0 0 0 0  0 0 0 0.5 0" type="matrix" in="shadowInnerInner1"></feColorMatrix>
        </filter>
    </defs>
    <g id="Page-1" stroke="none" stroke-width="1" fill="none" fill-rule="evenodd">
        <g id="Group-8" filter="url(#filter-1)" transform="translate(6.000000, 1.000000)">
            <g id="Group-6" transform="translate(0.000000, 2.000000)">
                <rect id="Rectangle" fill="#333333" fill-rule="nonzero" x="5" y="20" width="6" height="2"></rect>
                <rect id="Rectangle" fill="#333333" fill-rule="nonzero" x="5" y="2" width="6" height="2"></rect>
                <g id="Rectangle" fill-rule="nonzero">
                    <use fill="url(#linearGradient-2)" xlink:href="#path-3"></use>
                    <use fill="black" fill-opacity="1" filter="url(#filter-4)" xlink:href="#path-3"></use>
                </g>
                <path d="M9.33808608,18.5026383 L14.9806561,18.9951041 C15.5565585,19.0453957 16.0496693,18.7011922 15.9959912,18.2864498 L15.6739225,15.772523 C15.3518539,13.2631683 15.3518539,10.7368319 15.6739225,8.22747714 L15.9959912,5.71289726 C16.0496693,5.298808 15.5565585,4.95460447 14.9806561,5.00489607 L9.33808608,5.49736184 C8.91593959,5.53393755 8.58568275,5.77625161 8.54201243,6.07930747 L8.29272765,7.84865731 C7.90242412,10.6094701 7.90242412,13.3905301 8.29272765,16.1513429 L8.54201243,17.9200396 C8.58568275,18.2237486 8.91593959,18.4654095 9.33808608,18.5026383" id="Fill-6" fill="#333333"></path>
                <path d="M9.62597409,4.97240128 L15.2547698,4.45794409 C15.6207366,4.42449569 15.9008674,4.11759411 15.9008674,3.75010197 L15.9008674,3.75010197 C15.9008674,3.43281393 15.6436546,3.17560116 15.3263665,3.17560116 C15.3031286,3.17560116 15.279912,3.17701108 15.2568448,3.17982316 L9.90237511,3.8325774 C9.55676163,3.87471055 9.27304495,4.12584633 9.18927245,4.46379018 L9.18927245,4.46379018 C9.13461143,4.68429635 9.2690555,4.90736344 9.48956168,4.96202445 C9.53413449,4.97307356 9.58024283,4.97658099 9.62597409,4.97240128 Z" id="Path-4" fill="#333333" fill-rule="nonzero"></path>
                <path d="M9.57582681,20.8710898 L15.2046225,20.3566326 C15.5705893,20.3231842 15.8507201,20.0162826 15.8507201,19.6487905 L15.8507201,19.6487905 C15.8507201,19.3315025 15.5935073,19.0742897 15.2762193,19.0742897 C15.2529813,19.0742897 15.2297647,19.0756996 15.2066975,19.0785117 L9.85222782,19.7312659 C9.50661435,19.7733991 9.22289766,20.0245349 9.13912516,20.3624787 L9.13912516,20.3624787 C9.08446415,20.5829849 9.21890821,20.806052 9.43941439,20.860713 C9.4839872,20.8717621 9.53009555,20.8752695 9.57582681,20.8710898 Z" id="Path-4" fill="#333333" fill-rule="nonzero" transform="translate(12.425360, 19.961859) scale(1, -1) translate(-12.425360, -19.961859) "></path>
                <path d="M9,21 L11,21 L11,23.5 C11,23.7761424 10.7761424,24 10.5,24 L9.5,24 C9.22385763,24 9,23.7761424 9,23.5 L9,21 Z" id="Rectangle" fill="#008FD1" fill-rule="nonzero"></path>
                <path d="M9,0.149709839 L11,0.149709839 L11,2.64970984 C11,2.92585221 10.7761424,3.14970984 10.5,3.14970984 L9.5,3.14970984 C9.22385763,3.14970984 9,2.92585221 9,2.64970984 L9,0.149709839 Z" id="Rectangle" fill="#008FD1" fill-rule="nonzero" transform="translate(10.000000, 1.649710) scale(1, -1) translate(-10.000000, -1.649710) "></path>
            </g>
            <g id="Group-5" transform="translate(18.000000, 0.719300)" stroke="#EFEFEF">
                <path d="M46.3066693,25.719 L1.69333075,25.719 C0.757765509,25.719 0,25.0363432 0,24.1935099 L0,1.52549008 C0,0.682656811 0.757765509,0 1.69333075,0 L46.3066693,0 C47.2413878,0 48,0.682656811 48,1.52549008 L48,24.1935099 C48,25.0363432 47.2413878,25.719 46.3066693,25.719" id="Fill-3" fill="#FFFFFF"></path>
                <g id="Group-9" transform="translate(8.000000, 0.000000)" fill-rule="nonzero" stroke-linecap="square">
                    <path d="M16.5,0.7193 L16.5,25.5" id="Line-3"></path>
                    <path d="M24.5,0.7193 L24.5,25.5" id="Line-3"></path>
                    <path d="M32.5,0.7193 L32.5,25.5" id="Line-3"></path>
                    <path d="M8.5,0.7193 L8.5,25.5" id="Line-3"></path>
                    <path d="M0.5,0.7193 L0.5,25.5" id="Line-3"></path>
                </g>
            </g>
        </g>
    </g>
</svg>