<?xml version="1.0" encoding="UTF-8"?>
<svg width="42px" height="40px" viewBox="0 0 42 40" version="1.1" xmlns="http://www.w3.org/2000/svg" xmlns:xlink="http://www.w3.org/1999/xlink">
    <!-- Generator: Sketch 52 (66869) - http://www.bohemiancoding.com/sketch -->
    <title>icon--star</title>
    <desc>Created with Sketch.</desc>
    <g id="Page-1" stroke="none" stroke-width="1" fill="none" fill-rule="evenodd">
        <g id="03--rating" transform="translate(-232.000000, -274.000000)" fill="#E8E8E8" fill-rule="nonzero">
            <g id="stars--rating" transform="translate(32.000000, 223.000000)">
                <g id="stars--icons" transform="translate(0.000000, 49.000000)">
                    <path d="M221,36 L210.480098,41.5306396 C209.502409,42.0446413 208.293155,41.6687482 207.779153,40.6910591 C207.574475,40.3017381 207.503846,39.8558019 207.578199,39.4222867 L209.587322,27.7082039 L201.076543,19.4122445 C200.285575,18.641242 200.269391,17.3750155 201.040393,16.5840484 C201.34741,16.2690811 201.749695,16.0641067 202.184969,16.0008577 L213.946577,14.2917961 L219.206528,3.6339715 C219.695372,2.64346418 220.894624,2.23678618 221.885131,2.72563077 C222.279557,2.92029125 222.598812,3.23954629 222.793472,3.6339715 L228.053423,14.2917961 L239.815031,16.0008577 C240.90812,16.1596929 241.665483,17.1745786 241.506648,18.2676684 C241.443399,18.7029424 241.238425,19.1052273 240.923457,19.4122445 L232.412678,27.7082039 L234.421801,39.4222867 C234.608523,40.5109596 233.877347,41.5448714 232.788674,41.7315934 C232.355159,41.8059471 231.909223,41.7353178 231.519902,41.5306396 L221,36 Z" id="icon--star"></path>
                </g>
            </g>
        </g>
    </g>
</svg>